#!OML:ASF F:\VICON\USERDATA\INSTALL\Justin_Nancy\Justin_Nancy.ASF
:FULLY-SPECIFIED
:DEGREES
251
root -14.2101 16.9373 4.89537 -233.253 -84.0862 233.874
lowerback 10.028 1.86718 4.01954
upperback 0.370222 3.05387 3.92437
thorax -5.24767 1.40867 1.40982
lowerneck -16.8159 -5.02416 -8.0581
upperneck 20.0336 -6.03439 4.61864
head 9.49461 -2.97382 2.11906
rclavicle 8.64713e-015 7.15625e-015
rhumerus -25.1278 -7.17659 -79.4428
rradius 33.6836
rwrist 2.50208
rhand -16.7115 10.2863
rfingers 7.12502
rthumb 9.5137 -19.4789
lclavicle 8.64713e-015 7.15625e-015
lhumerus -35.3953 10.0587 86.0966
lradius 26.5957
lwrist -7.29424
lhand -14.1622 25.012
lfingers 7.12502
lthumb 11.9727 54.6496
rfemur -10.2361 8.61856 31.3196
rtibia 38.9575
rfoot -23.0024 -12.8547
rtoes 9.70765
lfemur -26.9485 9.07843 -16.1464
ltibia 54.3827
lfoot -11.9478 7.12452
ltoes -25.4293
252
root -14.4066 16.9248 4.95658 -232.649 -83.9548 233.785
lowerback 9.822 1.91277 4.67587
upperback 0.227065 3.17615 3.74421
thorax -5.23638 1.45076 0.843056
lowerneck -16.9787 -5.05843 -7.99913
upperneck 20.0237 -6.10964 4.74076
head 9.52807 -2.98694 2.13857
rclavicle -1.63003e-014 4.77083e-015
rhumerus -24.4701 -6.31532 -79.4838
rradius 34.2467
rwrist 2.11544
rhand -16.3072 10.3596
rfingers 7.12502
rthumb 9.90381 -19.3874
lclavicle -1.63003e-014 4.77083e-015
lhumerus -35.533 9.66534 86.0629
lradius 26.6957
lwrist -6.88373
lhand -13.9937 24.72
lfingers 7.12502
lthumb 12.1351 54.348
rfemur -9.96684 8.27922 31.109
rtibia 38.7124
rfoot -23.3528 -12.9624
rtoes 8.27367
lfemur -28.1757 8.95908 -16.3954
ltibia 52.0653
lfoot -12.0624 6.66751
ltoes -24.6344
253
root -14.6113 16.9109 5.01331 -232.727 -83.5165 234.338
lowerback 9.57515 1.96072 5.50653
upperback 0.08661 3.31688 3.72782
thorax -5.19593 1.49646 0.352265
lowerneck -17.1159 -4.97865 -7.74556
upperneck 20.0775 -5.96507 4.35633
head 9.54098 -2.94044 1.98134
rclavicle 3.18055e-015 1.74931e-014
rhumerus -23.808 -5.25574 -79.5072
rradius 34.649
rwrist 1.70659
rhand -16.3285 10.409
rfingers 7.12502
rthumb 9.88322 -19.3391
lclavicle 3.18055e-015 1.74931e-014
lhumerus -35.8254 9.3484 86.1382
lradius 26.9241
lwrist -6.1422
lhand -13.2932 24.0823
lfingers 7.12502
lthumb 12.8106 53.6693
rfemur -9.59951 7.83975 31.1868
rtibia 38.3821
rfoot -23.5734 -12.3865
rtoes 8.63125
lfemur -29.2186 9.14797 -16.3504
ltibia 49.4339
lfoot -12.2531 6.09755
ltoes -24.3051
254
root -14.8222 16.9021 5.04156 -232.487 -83.101 234.424
lowerback 9.37104 2.07575 5.87286
upperback 0.0346615 3.49494 3.80448
thorax -5.11385 1.57513 0.213112
lowerneck -17.1254 -4.88183 -7.82816
upperneck 19.853 -5.80055 4.3989
head 9.45725 -2.86199 2.03281
rclavicle -1.51076e-014 -1.66979e-014
rhumerus -23.0938 -5.08517 -79.341
rradius 34.9831
rwrist 2.44747
rhand -16.5445 10.682
rfingers 7.12502
rthumb 9.67487 -19.0758
lclavicle -1.51076e-014 -1.66979e-014
lhumerus -36.0228 8.63879 86.5033
lradius 27.2438
lwrist -4.67634
lhand -13.3061 24.074
lfingers 7.12502
lthumb 12.7981 53.6617
rfemur -8.9507 7.51834 31.3541
rtibia 37.8794
rfoot -23.6078 -11.7946
rtoes 9.11527
lfemur -30.0025 9.47471 -16.359
ltibia 46.5737
lfoot -12.3059 5.48728
ltoes -25.1855
255
root -15.0313 16.8957 5.04906 -232.352 -82.7995 234.516
lowerback 9.217 2.22186 5.83162
upperback 0.0404368 3.67284 3.88776
thorax -5.02281 1.66637 0.306435
lowerneck -17.2397 -4.96795 -8.12136
upperneck 19.7266 -5.91211 4.7904
head 9.46395 -2.88832 2.19921
rclavicle -1.20265e-014 3.73715e-014
rhumerus -22.3832 -4.99133 -79.0768
rradius 35.3882
rwrist 2.99478
rhand -16.1088 11.1379
rfingers 7.12502
rthumb 10.0952 -18.6
lclavicle -1.20265e-014 3.73715e-014
lhumerus -36.1131 7.72736 86.8969
lradius 27.4732
lwrist -3.59159
lhand -13.9314 24.6052
lfingers 7.12502
lthumb 12.1953 54.2297
rfemur -8.01953 7.84688 31.6558
rtibia 37.2024
rfoot -23.7071 -12.2513
rtoes 7.85144
lfemur -30.5192 9.84508 -16.3236
ltibia 43.5642
lfoot -12.0412 4.83448
ltoes -27.3182
256
root -15.2489 16.8782 5.04938 -235.243 -81.8061 237.419
lowerback 9.19743 2.3742 6.62381
upperback 0.144287 3.94238 4.03971
thorax -4.85185 1.78086 -0.0025787
lowerneck -17.3662 -5.06512 -7.66111
upperneck 19.5434 -6.11057 4.627
head 9.41543 -2.95875 2.03725
rclavicle 1.68967e-015 7.15625e-015
rhumerus -21.7541 -4.63151 -79.2074
rradius 35.9166
rwrist 2.68047
rhand -15.265 11.4399
rfingers 7.12502
rthumb 10.9092 -18.2567
lclavicle 1.68967e-015 7.15625e-015
lhumerus -36.0134 7.00637 86.8237
lradius 27.5121
lwrist -3.1444
lhand -14.5973 24.9562
lfingers 7.12502
lthumb 11.5531 54.6178
rfemur -6.71567 8.19983 32.8759
rtibia 36.4472
rfoot -23.9064 -12.5638
rtoes 7.00257
lfemur -30.5772 10.1865 -15.0607
ltibia 40.4339
lfoot -13.139 4.48453
ltoes -27.7518
257
root -15.4707 16.8612 5.06247 -236.756 -81.1383 239.05
lowerback 8.96446 2.47421 7.26917
upperback 0.241071 4.10275 4.05393
thorax -4.56808 1.85189 -0.348453
lowerneck -17.3014 -5.0433 -6.90047
upperneck 19.0849 -6.16047 4.18161
head 9.20567 -2.97105 1.75492
rclavicle 1.41137e-014 -1.11319e-014
rhumerus -21.1476 -4.13835 -79.4689
rradius 36.4342
rwrist 2.46205
rhand -15.1883 11.4717
rfingers 7.12502
rthumb 10.9831 -18.221
lclavicle 1.41137e-014 -1.11319e-014
lhumerus -35.8782 7.0015 86.4244
lradius 27.3903
lwrist -3.64854
lhand -14.3924 25.0541
lfingers 7.12502
lthumb 11.7507 54.7045
rfemur -5.60013 8.05653 33.5646
rtibia 35.7032
rfoot -24.0539 -12.3675
rtoes 6.79243
lfemur -30.5698 9.95427 -14.107
ltibia 37.1214
lfoot -14.6149 4.27954
ltoes -27.6614
258
root -15.6899 16.847 5.08242 -237.129 -81.2121 239.624
lowerback 8.70312 2.46459 7.04604
upperback 0.222928 4.04635 4.19916
thorax -4.46928 1.83273 -0.0558528
lowerneck -17.2073 -5.04161 -7.2637
upperneck 18.9257 -6.05577 4.17566
head 9.13989 -2.94899 1.82837
rclavicle -4.83047e-014 -7.95139e-016
rhumerus -20.6819 -3.18108 -79.2553
rradius 37.09
rwrist 1.76237
rhand -15.4059 11.3341
rfingers 7.12502
rthumb 10.7733 -18.3696
lclavicle -4.83047e-014 -7.95139e-016
lhumerus -35.9305 8.09264 86.1783
lradius 27.0105
lwrist -4.87261
lhand -13.945 24.6425
lfingers 7.12502
lthumb 12.1822 54.2678
rfemur -4.63167 7.91904 33.4853
rtibia 34.9586
rfoot -24.3925 -12.0807
rtoes 8.1601
lfemur -30.6229 9.34472 -14.0728
ltibia 33.7106
lfoot -14.1628 3.93338
ltoes -29.185
259
root -15.9085 16.8307 5.12199 -239.621 -81.3956 242.172
lowerback 8.66801 2.33768 7.25949
upperback 0.170385 3.89874 4.2483
thorax -4.50172 1.75263 -0.104376
lowerneck -17.18 -5.0964 -7.9687
upperneck 19.0324 -6.03985 4.57029
head 9.20841 -2.95146 2.08112
rclavicle -1.61016e-014 1.11319e-014
rhumerus -20.3158 -2.93328 -78.9535
rradius 37.7079
rwrist 1.28879
rhand -15.2862 11.6208
rfingers 7.12502
rthumb 10.8888 -18.0769
lclavicle -1.61016e-014 1.11319e-014
lhumerus -36.0568 8.88443 85.9767
lradius 26.689
lwrist -5.98591
lhand -13.5003 24.1828
lfingers 7.12502
lthumb 12.6109 53.7822
rfemur -3.53743 7.49604 33.4389
rtibia 34.2552
rfoot -24.5262 -12.1715
rtoes 7.83406
lfemur -30.4385 8.38085 -13.9296
ltibia 30.1846
lfoot -18.3751 4.05422
ltoes -25.006
260
root -16.1301 16.8119 5.18216 -243.217 -81.3882 245.894
lowerback 8.51149 2.24262 7.80711
upperback 0.0972443 3.81158 4.34997
thorax -4.46754 1.69494 -0.283157
lowerneck -17.1063 -5.16348 -8.32193
upperneck 19.0416 -6.07939 4.71941
head 9.21839 -2.98083 2.1857
rclavicle 3.34952e-014 9.54166e-015
rhumerus -20.0044 -2.82987 -78.5444
rradius 38.2142
rwrist 1.07768
rhand -15.5126 11.8563
rfingers 7.12502
rthumb 10.6703 -17.8527
lclavicle 3.34952e-014 9.54166e-015
lhumerus -36.1162 9.24707 86.0591
lradius 26.3663
lwrist -6.48509
lhand -13.8614 24.2182
lfingers 7.12502
lthumb 12.2628 53.8387
rfemur -2.51565 6.63767 33.4688
rtibia 33.6455
rfoot -24.5275 -12.2462
rtoes 5.56198
lfemur -30.1469 7.3033 -13.4852
ltibia 26.5908
lfoot -18.7783 4.20345
ltoes -23.2064
